<?xml version="1.0" encoding="UTF-8" standalone="no"?>
<svg
   id="svg4505"
   height="24"
   width="24"
   version="1.1"
   xmlns:xlink="http://www.w3.org/1999/xlink"
   xmlns="http://www.w3.org/2000/svg"
   xmlns:svg="http://www.w3.org/2000/svg"
   xmlns:rdf="http://www.w3.org/1999/02/22-rdf-syntax-ns#"
   xmlns:cc="http://creativecommons.org/ns#"
   xmlns:dc="http://purl.org/dc/elements/1.1/">
  <defs
     id="defs4507">
    <linearGradient
       id="linearGradient4342">
      <stop
         id="stop4344"
         style="stop-color:#ffffff;stop-opacity:1"
         offset="0" />
      <stop
         id="stop4346"
         style="stop-color:#ffffff;stop-opacity:0.23529412"
         offset="0.00641762" />
      <stop
         id="stop4348"
         style="stop-color:#ffffff;stop-opacity:0.15686275"
         offset="0.79602259" />
      <stop
         id="stop4350"
         style="stop-color:#ffffff;stop-opacity:1"
         offset="1" />
    </linearGradient>
    <linearGradient
       id="linearGradient3820-7-2-2">
      <stop
         offset="0"
         style="stop-color:#3d3d3d;stop-opacity:1"
         id="stop3822-2-6-36" />
      <stop
         offset="0.5"
         style="stop-color:#686868;stop-opacity:0.49803922"
         id="stop3864-8-7-6" />
      <stop
         offset="1"
         style="stop-color:#686868;stop-opacity:0"
         id="stop3824-1-2-4" />
    </linearGradient>
    <radialGradient
       cx="99.157013"
       cy="186.17059"
       r="62.769119"
       fx="99.157013"
       fy="186.17059"
       id="radialGradient3108"
       xlink:href="#linearGradient3820-7-2-2"
       gradientUnits="userSpaceOnUse"
       gradientTransform="matrix(0.11151981,0,0,0.03548359,0.94202897,15.166729)" />
    <linearGradient
       id="linearGradient2793-2-0-669-94-2">
      <stop
         id="stop4681-3-1"
         style="stop-color:#b4b4b4;stop-opacity:1"
         offset="0" />
      <stop
         id="stop4683-67-4"
         style="stop-color:#ffffff;stop-opacity:1"
         offset="1" />
    </linearGradient>
    <linearGradient
       y2="51.275898"
       x2="1055.881"
       y1="51.275898"
       x1="1179.2244"
       spreadMethod="reflect"
       gradientTransform="matrix(0.0891819,0,0,0.0779309,-90.165471,-1.745973)"
       gradientUnits="userSpaceOnUse"
       id="linearGradient4282"
       xlink:href="#linearGradient2793-2-0-669-94-2" />
    <linearGradient
       y2="47.249992"
       x2="203.18126"
       y1="15.249992"
       x1="203.18126"
       gradientTransform="matrix(0.5,0,0,0.5,-87.590631,-3.624996)"
       gradientUnits="userSpaceOnUse"
       id="linearGradient4309"
       xlink:href="#linearGradient5362" />
    <linearGradient
       y2="36.139797"
       x2="130.96898"
       y1="21.957684"
       x1="130.96898"
       gradientTransform="matrix(1.1634373,0,0,1.1634373,-132.37419,-20.046387)"
       gradientUnits="userSpaceOnUse"
       id="linearGradient4340"
       xlink:href="#linearGradient4342" />
    <linearGradient
       y2="47.249992"
       x2="172.20302"
       y1="17.249992"
       x1="172.20302"
       gradientTransform="matrix(0.5,0,0,0.5,-71.101511,-3.624996)"
       gradientUnits="userSpaceOnUse"
       id="linearGradient4377"
       xlink:href="#linearGradient5668" />
    <linearGradient
       id="linearGradient5362">
      <stop
         style="stop-color:#ffe16b;stop-opacity:1"
         offset="0"
         id="stop5364" />
      <stop
         style="stop-color:#f9c440;stop-opacity:1"
         offset="1"
         id="stop5366" />
    </linearGradient>
    <linearGradient
       id="linearGradient5668">
      <stop
         style="stop-color:#ad5f00;stop-opacity:1"
         offset="0"
         id="stop5670" />
      <stop
         style="stop-color:#ad5f00;stop-opacity:0"
         offset="1"
         id="stop5672" />
    </linearGradient>
  </defs>
  <metadata
     id="metadata4510">
    <rdf:RDF>
      <cc:Work
         rdf:about="">
        <dc:format>image/svg+xml</dc:format>
        <dc:type
           rdf:resource="http://purl.org/dc/dcmitype/StillImage" />
      </cc:Work>
    </rdf:RDF>
  </metadata>
  <path
     d="m 19,21.772727 a 7,2.2272727 0 0 1 -14,0 7,2.2272727 0 1 1 14,0 z"
     id="path3818-0-2-5"
     style="fill:url(#radialGradient3108);fill-opacity:1;stroke:none;opacity:0.6" />
  <path
     style="color:#000000;clip-rule:nonzero;display:inline;overflow:visible;visibility:visible;opacity:1;isolation:auto;mix-blend-mode:normal;color-interpolation:sRGB;color-interpolation-filters:linearRGB;solid-color:#000000;solid-opacity:1;fill:url(#linearGradient4282);fill-opacity:1;fill-rule:nonzero;stroke:none;stroke-width:1;stroke-linecap:butt;stroke-linejoin:miter;stroke-miterlimit:4;stroke-dasharray:none;stroke-dashoffset:0;stroke-opacity:1;marker:none;color-rendering:auto;image-rendering:auto;shape-rendering:auto;text-rendering:auto;enable-background:accumulate"
     d="m 3,4.8515625 9,-2.8242188 9.003906,2.8281251 C 21.003906,16 19.840714,17.387597 12,21.914435 4.14384,17.378679 3,16 3,4.8515625 Z"
     id="path4257" />
  <path
     id="path4284"
     d="m 5,6.1494132 7,-2.1796875 7,2.1796875 C 19,14.649413 18,16.59983 12.000783,20.06348 6,16.598927 5,14.649413 5,6.1494132 Z"
     style="color:#000000;clip-rule:nonzero;display:inline;overflow:visible;visibility:visible;opacity:1;isolation:auto;mix-blend-mode:normal;color-interpolation:sRGB;color-interpolation-filters:linearRGB;solid-color:#000000;solid-opacity:1;fill:url(#linearGradient4309);fill-opacity:1.0;fill-rule:nonzero;stroke:none;stroke-width:1;stroke-linecap:butt;stroke-linejoin:miter;stroke-miterlimit:4;stroke-dasharray:none;stroke-dashoffset:0;stroke-opacity:1;marker:none;color-rendering:auto;image-rendering:auto;shape-rendering:auto;text-rendering:auto;enable-background:accumulate" />
  <path
     id="path8117"
     d="m 2.5,4.5 9.5,-3 9.5,3 C 21.5,16 20.5,17.592531 12,22.500008 3.5,17.592531 2.5,16 2.5,4.5 Z"
     style="opacity:0.5;fill:none;fill-opacity:1;stroke:#555761;stroke-width:1;stroke-linecap:round;stroke-linejoin:round;stroke-opacity:1" />
  <path
     style="color:#000000;clip-rule:nonzero;display:inline;overflow:visible;visibility:visible;opacity:0.5;isolation:auto;mix-blend-mode:normal;color-interpolation:sRGB;color-interpolation-filters:linearRGB;solid-color:#000000;solid-opacity:1;fill:none;fill-opacity:1;fill-rule:nonzero;stroke:#555761;stroke-width:1;stroke-linecap:round;stroke-linejoin:round;stroke-miterlimit:4;stroke-dasharray:none;stroke-dashoffset:0;stroke-opacity:1;color-rendering:auto;image-rendering:auto;shape-rendering:auto;text-rendering:auto;enable-background:accumulate"
     d="m 5.5,6.5 6.5,-2 6.5,2 C 18.5,15 17,16.613704 12.000783,19.500004 7,16.612801 5.5,15 5.5,6.5 Z"
     id="path8128" />
  <path
     style="color:#000000;clip-rule:nonzero;display:inline;overflow:visible;visibility:visible;opacity:0.7;isolation:auto;mix-blend-mode:normal;color-interpolation:sRGB;color-interpolation-filters:linearRGB;solid-color:#000000;solid-opacity:1;fill:none;fill-opacity:1;fill-rule:nonzero;stroke:url(#linearGradient4340);stroke-width:1;stroke-linecap:round;stroke-linejoin:miter;stroke-miterlimit:4.0999999;stroke-dasharray:none;stroke-dashoffset:0;stroke-opacity:1;marker:none;color-rendering:auto;image-rendering:auto;shape-rendering:auto;text-rendering:auto;enable-background:accumulate"
     d="m 3.5,5.2265625 8.5,-2.6875 8.5,2.6902482 C 20.5,15.5 19.5,17.013624 12,21.34375 4.476404,17 3.5,15.5 3.5,5.2265625 Z"
     id="path4311" />
  <path
     id="path4352"
     d="M 6.5,7.2348349 12,5.5552427 17.5,7.2348349 C 17.5,14.5 16,16.034801 12.000783,18.34375 8,16.033897 6.5,14.5 6.5,7.2348349 Z"
     style="color:#000000;clip-rule:nonzero;display:inline;overflow:visible;visibility:visible;opacity:0.15;isolation:auto;mix-blend-mode:normal;color-interpolation:sRGB;color-interpolation-filters:linearRGB;solid-color:#000000;solid-opacity:1;fill:none;fill-opacity:0;fill-rule:nonzero;stroke:url(#linearGradient4377);stroke-width:1;stroke-linecap:round;stroke-linejoin:miter;stroke-miterlimit:4;stroke-dasharray:none;stroke-dashoffset:0;stroke-opacity:1;marker:none;color-rendering:auto;image-rendering:auto;shape-rendering:auto;text-rendering:auto;enable-background:accumulate" />
  <path
     id="path4379"
     d="M 3,4.8515625 12,2.0273437 C 12,10.5 12,12 12,21.914435 4.14384,17.378679 3,16 3,4.8515625 Z"
     style="color:#000000;clip-rule:nonzero;display:inline;overflow:visible;visibility:visible;opacity:0.2;isolation:auto;mix-blend-mode:normal;color-interpolation:sRGB;color-interpolation-filters:linearRGB;solid-color:#000000;solid-opacity:1;fill:#ffffff;fill-opacity:1;fill-rule:nonzero;stroke:none;stroke-width:1;stroke-linecap:butt;stroke-linejoin:miter;stroke-miterlimit:4;stroke-dasharray:none;stroke-dashoffset:0;stroke-opacity:1;marker:none;color-rendering:auto;image-rendering:auto;shape-rendering:auto;text-rendering:auto;enable-background:accumulate" />
  <path
     id="path9124"
     style="mix-blend-mode:normal;fill:#7a0000;fill-opacity:1;stroke:none;stroke-width:1;stroke-linecap:butt;stroke-linejoin:round;stroke-opacity:0.498039;font-variation-settings:normal;opacity:1;vector-effect:none;stroke-miterlimit:4;stroke-dasharray:none;stroke-dashoffset:0;-inkscape-stroke:none;marker:none;marker-start:none;marker-mid:none;marker-end:none;paint-order:normal;stop-color:#000000;stop-opacity:1"
     d="m 12,7.1361455 c -0.205352,0 -0.411379,0.053741 -0.595703,0.1601563 L 8.5957031,8.9193486 C 8.2270555,9.1321884 8,9.5229679 8,9.9486455 v 3.2460935 c 0,0.425678 0.2270555,0.816458 0.5957031,1.029297 l 2.8085939,1.623047 c 0.368648,0.212839 0.822758,0.212839 1.191406,0 l 2.808594,-1.623047 C 15.772945,14.011197 16,13.620417 16,13.194739 V 9.9486455 C 16,9.5229679 15.772945,9.1321884 15.404297,8.9193486 L 12.595703,7.2963018 C 12.411379,7.1898819 12.205352,7.1361455 12,7.1361455 Z m 0,1.0019531 c 0.03067,1e-7 0.06478,0.00754 0.0957,0.025391 l 2.806641,1.6230469 a 1.00142,1.00142 0 0 1 0.002,0 c 0.03363,0.019416 0.05681,0.044652 0.07226,0.074219 L 12,11.571692 Z M 9.0253906,9.8548955 12,11.587317 v 3.417969 c -0.03278,0 -0.06556,-0.008 -0.0957,-0.02539 L 9.0976562,13.356849 a 1.00142,1.00142 0 0 1 -0.00195,0 c -0.063216,-0.0365 -0.09375,-0.0925 -0.09375,-0.16211 V 9.9486455 c 0,-0.034805 0.0079,-0.066486 0.023437,-0.09375 z" />
</svg>
