<?xml version="1.0" encoding="UTF-8" standalone="no"?>
<svg
   version="1.1"
   width="64"
   height="64"
   id="svg6333"
   xml:space="preserve"
   xmlns:xlink="http://www.w3.org/1999/xlink"
   xmlns="http://www.w3.org/2000/svg"
   xmlns:svg="http://www.w3.org/2000/svg"
   xmlns:rdf="http://www.w3.org/1999/02/22-rdf-syntax-ns#"
   xmlns:cc="http://creativecommons.org/ns#"
   xmlns:dc="http://purl.org/dc/elements/1.1/"><defs
     id="defs6335"><linearGradient
       id="linearGradient4729"><stop
         id="stop4725"
         offset="0"
         style="stop-color:#0e9a83;stop-opacity:1" /><stop
         id="stop4727"
         offset="1"
         style="stop-color:#ad5f00;stop-opacity:1" /></linearGradient><linearGradient
       id="linearGradient3112"><stop
         id="stop3108"
         offset="0"
         style="stop-color:#0e9a83;stop-opacity:1" /><stop
         id="stop3110"
         offset="1"
         style="stop-color:#ad5f00;stop-opacity:1" /></linearGradient><linearGradient
       id="linearGradient5558"><stop
         id="stop3101"
         offset="0"
         style="stop-color:#28bca3;stop-opacity:1" /><stop
         id="stop3103"
         offset="1"
         style="stop-color:#f9c440;stop-opacity:1" /></linearGradient><linearGradient
       id="linearGradient2382"><stop
         style="stop-color:#ffffff;stop-opacity:1;"
         offset="0"
         id="stop2378" /><stop
         style="stop-color:#ffffff;stop-opacity:0;"
         offset="1"
         id="stop2380" /></linearGradient><linearGradient
       x1="23.99999"
       y1="4.999989"
       x2="23.99999"
       y2="43"
       id="linearGradient3381-5-4"
       xlink:href="#linearGradient3924-2-2-5-8"
       gradientUnits="userSpaceOnUse"
       gradientTransform="matrix(1.4324324,0,0,1.4362832,-2.378381,-2.4707782)" /><linearGradient
       id="linearGradient3924-2-2-5-8"><stop
         id="stop3926-9-4-9-6"
         style="stop-color:#ffffff;stop-opacity:1"
         offset="0" /><stop
         id="stop3928-9-8-6-5"
         style="stop-color:#ffffff;stop-opacity:0.23529412"
         offset="0.06316455" /><stop
         id="stop3930-3-5-1-7"
         style="stop-color:#ffffff;stop-opacity:0.15686275"
         offset="0.95056331" /><stop
         id="stop3932-8-0-4-8"
         style="stop-color:#ffffff;stop-opacity:0.39215687"
         offset="1" /></linearGradient><radialGradient
       cx="4.9929786"
       cy="43.5"
       r="2.5"
       fx="4.9929786"
       fy="43.5"
       id="radialGradient3337-2-2"
       xlink:href="#linearGradient3688-166-749-4-0-3-8"
       gradientUnits="userSpaceOnUse"
       gradientTransform="matrix(2.4045407,0,0,0.99999998,41.985755,15.500001)" /><linearGradient
       id="linearGradient3688-166-749-4-0-3-8"><stop
         id="stop2883-4-0-1-8"
         style="stop-color:#181818;stop-opacity:1"
         offset="0" /><stop
         id="stop2885-9-2-9-6"
         style="stop-color:#181818;stop-opacity:0"
         offset="1" /></linearGradient><radialGradient
       cx="4.9929786"
       cy="43.5"
       r="2.5"
       fx="4.9929786"
       fy="43.5"
       id="radialGradient3339-1-4"
       xlink:href="#linearGradient3688-464-309-9-2-4-2"
       gradientUnits="userSpaceOnUse"
       gradientTransform="matrix(2.4045407,0,0,0.99999998,-22.014244,-102.5)" /><linearGradient
       id="linearGradient3688-464-309-9-2-4-2"><stop
         id="stop2889-7-9-6-9"
         style="stop-color:#181818;stop-opacity:1"
         offset="0" /><stop
         id="stop2891-6-6-1-7"
         style="stop-color:#181818;stop-opacity:0"
         offset="1" /></linearGradient><linearGradient
       id="linearGradient3702-501-757-8-4-1-1"><stop
         id="stop2895-8-9-9-1"
         style="stop-color:#181818;stop-opacity:0"
         offset="0" /><stop
         id="stop2897-7-8-7-7"
         style="stop-color:#181818;stop-opacity:1"
         offset="0.5" /><stop
         id="stop2899-4-5-1-5"
         style="stop-color:#181818;stop-opacity:0"
         offset="1" /></linearGradient><linearGradient
       x1="25.058096"
       y1="47.027729"
       x2="25.058096"
       y2="39.999443"
       id="linearGradient6394"
       xlink:href="#linearGradient3702-501-757-8-4-1-1"
       gradientUnits="userSpaceOnUse"
       gradientTransform="matrix(1.5714286,0,0,0.7142857,-5.7142853,27.928572)" /><linearGradient
       xlink:href="#linearGradient5558"
       id="linearGradient856-2-3"
       x1="10.026189"
       y1="10.970403"
       x2="46.572105"
       y2="47.516319"
       gradientUnits="userSpaceOnUse"
       gradientTransform="matrix(1.4102564,0,0,1.4102564,-1.8461748,-3.2564048)" /><linearGradient
       id="linearGradient874"><stop
         id="stop870-3"
         offset="0"
         style="stop-color:#ad5f00;stop-opacity:1" /><stop
         id="stop872"
         offset="1"
         style="stop-color:#007367;stop-opacity:1" /></linearGradient><linearGradient
       xlink:href="#linearGradient2382"
       id="linearGradient2384"
       x1="37.153172"
       y1="4.255136"
       x2="37.153172"
       y2="59.47414"
       gradientUnits="userSpaceOnUse" /><linearGradient
       xlink:href="#linearGradient874"
       id="linearGradient1334"
       x1="63.654377"
       y1="63.575733"
       x2="12.484235"
       y2="12.405591"
       gradientUnits="userSpaceOnUse" /><linearGradient
       xlink:href="#linearGradient3112"
       id="linearGradient3106"
       gradientUnits="userSpaceOnUse"
       gradientTransform="matrix(1.4102564,0,0,1.4102564,-1.8461748,-3.2564048)"
       x1="11.60029"
       y1="12.544504"
       x2="43.512997"
       y2="44.457211" /><linearGradient
       xlink:href="#linearGradient4729"
       id="linearGradient3156"
       gradientUnits="userSpaceOnUse"
       gradientTransform="matrix(1.4102564,0,0,1.4102564,-1.8461748,-3.2564048)"
       x1="10.052188"
       y1="10.996402"
       x2="43.512997"
       y2="44.457211" /><linearGradient
       xlink:href="#linearGradient3112"
       id="linearGradient4731"
       gradientUnits="userSpaceOnUse"
       gradientTransform="matrix(1.4102564,0,0,1.4102564,-1.8461748,-3.2564048)"
       x1="9.5622129"
       y1="10.506427"
       x2="43.512997"
       y2="44.457211" /></defs><metadata
     id="metadata6338"><rdf:RDF><cc:Work
         rdf:about=""><dc:format>image/svg+xml</dc:format><dc:type
           rdf:resource="http://purl.org/dc/dcmitype/StillImage" /></cc:Work></rdf:RDF></metadata><rect
     style="opacity:0.6;fill:url(#radialGradient3337-2-2);fill-opacity:1;stroke:none;stroke-width:1.06199"
     id="rect2801-5-5-7-9"
     y="56.5"
     x="54"
     height="5"
     width="6" /><rect
     style="opacity:0.6;fill:url(#radialGradient3339-1-4);fill-opacity:1;stroke:none;stroke-width:1.06199"
     id="rect3696-3-0-3-7"
     transform="scale(-1)"
     y="-61.5"
     x="-10"
     height="5"
     width="6" /><rect
     style="opacity:0.6;fill:url(#linearGradient6394);fill-opacity:1;stroke:none;stroke-width:1.06199"
     id="rect3700-5-6-8-4"
     y="56.5"
     x="10"
     height="5.0000005"
     width="44" /><rect
     style="color:#000000;display:inline;overflow:visible;visibility:visible;opacity:1;fill:url(#linearGradient856-2-3);fill-opacity:1;fill-rule:nonzero;stroke:none;stroke-width:1;stroke-opacity:0.5;marker:none;enable-background:accumulate"
     id="rect5505-21-1-5"
     y="4.5000019"
     x="4.4999986"
     ry="6"
     rx="6"
     height="55"
     width="55" /><rect
     style="color:#000000;display:inline;overflow:visible;visibility:visible;fill:url(#linearGradient2384);fill-opacity:1;fill-rule:nonzero;stroke:none;stroke-width:1;stroke-opacity:0.5;marker:none;enable-background:accumulate;opacity:0.2"
     id="rect5505-21-1-5-9"
     y="4.5000019"
     x="4.4999986"
     ry="6"
     rx="6"
     height="55"
     width="55" /><rect
     style="opacity:0.5;fill:none;stroke:url(#linearGradient3381-5-4);stroke-width:1;stroke-linecap:round;stroke-linejoin:round;stroke-miterlimit:4;stroke-dasharray:none;stroke-dashoffset:0;stroke-opacity:1"
     id="rect6741-5-0-2-3"
     y="5.4287739"
     x="5.4999986"
     ry="5"
     height="53.142479"
     width="53"
     rx="5" /><rect
     style="color:#000000;display:inline;overflow:visible;visibility:visible;fill:none;fill-opacity:1;fill-rule:nonzero;stroke:url(#linearGradient1334);stroke-width:1;stroke-opacity:0.5;marker:none;enable-background:accumulate"
     id="rect5505-21-1-5-2"
     y="4.5000019"
     x="4.4999986"
     ry="6"
     rx="6"
     height="55"
     width="55" /><path
     id="path4353-6-2"
     style="color:#000000;font-variation-settings:normal;clip-rule:nonzero;display:inline;overflow:visible;visibility:visible;isolation:auto;mix-blend-mode:normal;color-interpolation:sRGB;color-interpolation-filters:linearRGB;solid-color:#000000;solid-opacity:1;vector-effect:none;fill:url(#linearGradient3156);fill-opacity:1;fill-rule:nonzero;stroke:none;stroke-width:1;stroke-linecap:butt;stroke-linejoin:miter;stroke-miterlimit:4;stroke-dasharray:none;stroke-dashoffset:0;stroke-opacity:0.5;-inkscape-stroke:none;marker:none;color-rendering:auto;image-rendering:auto;shape-rendering:auto;text-rendering:auto;enable-background:accumulate;stop-color:#000000;opacity:0.15"
     d="M 31.667969,10.259766 C 25.445274,12.446504 19.222895,14.634145 13,16.820312 c 0.05701,6.256338 -0.164796,12.541718 0.568717,18.767837 0.422333,3.61909 1.555134,7.279663 4.008455,10.054152 3.253025,3.716784 7.595821,6.216554 11.76767,8.756316 0.880664,0.526213 1.771123,1.035895 2.655158,1.556461 4.523063,-2.686663 9.204547,-5.251308 13.068359,-8.871094 2.53144,-2.358279 4.267334,-5.515281 4.920596,-8.911586 1.081732,-5.335295 0.931116,-10.814778 1.007139,-16.230992 0.0012,-1.707031 0.0038,-3.414062 0.0039,-5.121094 -6.333522,-2.225373 -12.666936,-4.451058 -19,-6.677734 -0.110677,0.03906 -0.221354,0.07813 -0.332031,0.117188 z m 15.335937,9.396484 c -0.08534,5.753714 0.149201,11.559933 -0.83074,17.25419 -0.499249,2.695542 -1.705316,5.310835 -3.774728,7.159872 -3.05986,2.984054 -6.806706,5.067861 -10.41211,7.25 -3.63604,-2.221253 -7.365586,-4.314005 -10.468997,-7.309016 -2.390118,-2.192688 -3.61572,-5.49618 -3.917626,-8.590864 C 16.89643,30.195487 17.053346,24.910408 17.005859,19.652344 22.003906,17.896484 27.001953,16.140625 32,14.384766 c 5.001302,1.757161 10.002604,3.514323 15.003906,5.271484 z m -15.070312,0.757812 c -1.722695,0.03715 -3.044102,1.307478 -4.519686,2.03171 C 25.763072,23.448919 24.015172,24.309125 22.424929,25.402 21.20394,26.352315 20.872764,27.974832 21,29.443359 c 0.03072,2.567488 -0.06105,5.141587 0.04492,7.705079 0.19223,1.52758 1.377813,2.679423 2.722702,3.297794 2.267126,1.273003 4.476875,2.658191 6.779251,3.862362 1.455154,0.623008 3.073682,0.114593 4.307343,-0.756013 2.206067,-1.309282 4.47826,-2.51693 6.643829,-3.888519 1.26897,-0.94791 1.639425,-2.605071 1.501953,-4.109374 -0.03072,-2.567488 0.06105,-5.141587 -0.04492,-7.705079 -0.192262,-1.527852 -1.378012,-2.679006 -2.722702,-3.297794 -2.267126,-1.273003 -4.476875,-2.658191 -6.779251,-3.862362 -0.484117,-0.187401 -1.000697,-0.281113 -1.519531,-0.275391 z m 5.888672,7.570313 C 36.214844,28.91276 34.607422,29.841146 33,30.769531 c 0,-1.856771 0,-3.713541 0,-5.570312 1.607422,0.928385 3.214844,1.856771 4.822266,2.785156 z M 31,33.076172 c 0,2.240885 0,4.481771 0,6.722656 -1.940755,-1.119792 -3.88151,-2.239583 -5.822266,-3.359375 0,-2.241536 0,-4.483073 0,-6.724609 1.940756,1.120442 3.881511,2.240885 5.822266,3.361328 z" /><path
     id="path4353-6"
     style="color:#000000;clip-rule:nonzero;display:inline;overflow:visible;visibility:visible;isolation:auto;mix-blend-mode:normal;color-interpolation:sRGB;color-interpolation-filters:linearRGB;solid-color:#000000;solid-opacity:1;fill:url(#linearGradient3106);fill-opacity:1;fill-rule:nonzero;stroke:none;stroke-width:1;stroke-linecap:butt;stroke-linejoin:miter;stroke-miterlimit:4;stroke-dasharray:none;stroke-dashoffset:0;stroke-opacity:0.5;marker:none;color-rendering:auto;image-rendering:auto;shape-rendering:auto;text-rendering:auto;enable-background:accumulate;font-variation-settings:normal;opacity:0.3;vector-effect:none;-inkscape-stroke:none;stop-color:#000000;stop-opacity:1"
     d="M 32,11.203 14,17.529172 C 13.999274,29.97352 13.9941,36.827467 16.128906,41.533078 18.270153,46.252938 22.716358,49.40999 32,54.79675 41.283642,49.40999 45.729847,46.252938 47.871094,41.533078 50.005879,36.827467 50.000726,29.97352 50,17.529172 Z m 0,2.121094 16.007812,5.625 c -0.06887,4.972557 0.08085,10.016888 -0.408203,14.876953 -0.274069,3.366302 -1.007018,6.861863 -3.179687,9.550781 -3.393748,3.943607 -8.050527,6.448095 -12.435547,9.113281 C 28.249684,50.187291 24.33979,48.061097 21.136719,45.017453 18.828471,43.011435 17.413489,40.155441 16.853516,37.177609 15.824477,31.160088 16.067593,25.024734 16.001953,18.945187 Z m 0,8.08789 c -0.513379,0 -1.027472,0.132389 -1.488281,0.398438 l -7.023438,4.056641 C 22.566662,26.399161 22,27.379039 22,28.443234 v 8.111329 c 0,1.064194 0.566662,2.044075 1.488281,2.576171 l 7.023438,4.056641 c 0.921619,0.532097 2.054942,0.532097 2.976562,0 l 7.023438,-4.056641 C 41.433339,38.598638 42,37.618757 42,36.554563 v -8.111329 c 0,-1.064195 -0.566661,-2.044073 -1.488281,-2.576171 L 33.488281,21.810422 C 33.027472,21.544373 32.513379,21.411984 32,21.411984 Z m 0,2.179688 c 0.137911,0 0.275666,0.03459 0.398438,0.105469 l 7.02539,4.05664 c 0.122772,0.07088 0.22206,0.171582 0.291016,0.291016 L 32,32.499875 v 8.908203 c -0.137911,0 -0.275667,-0.03654 -0.398438,-0.107422 l -7.02539,-4.054687 C 24.330629,37.104206 24.177734,36.83809 24.177734,36.554563 v -8.111329 c 0,-0.141762 0.03847,-0.279002 0.107422,-0.398437 L 32,32.499875 Z" /><path
     id="path4353"
     style="color:#000000;clip-rule:nonzero;display:inline;overflow:visible;visibility:visible;opacity:1;isolation:auto;mix-blend-mode:normal;color-interpolation:sRGB;color-interpolation-filters:linearRGB;solid-color:#000000;solid-opacity:1;fill:#ffffff;fill-opacity:1;fill-rule:nonzero;stroke:none;stroke-width:0.973794;stroke-linecap:round;stroke-linejoin:miter;stroke-miterlimit:4;stroke-dasharray:none;stroke-dashoffset:0;stroke-opacity:1;marker:none;color-rendering:auto;image-rendering:auto;shape-rendering:auto;text-rendering:auto;enable-background:accumulate"
     d="M 32 10.203125 L 14 16.529297 C 13.999274 28.973645 13.994138 35.827592 16.128906 40.533203 C 18.270153 45.253063 22.716358 48.410115 32 53.796875 C 41.283642 48.410115 45.729847 45.253063 47.871094 40.533203 C 50.005879 35.827592 50.000726 28.973645 50 16.529297 L 32 10.203125 z M 32 12.324219 L 48.007812 17.949219 C 47.938942 22.921776 48.088663 27.966107 47.599609 32.826172 C 47.32554 36.192474 46.592591 39.688035 44.419922 42.376953 C 41.026174 46.32056 36.369395 48.825048 31.984375 51.490234 C 28.249684 49.187416 24.33979 47.061222 21.136719 44.017578 C 18.828471 42.01156 17.413489 39.155566 16.853516 36.177734 C 15.824477 30.160213 16.067593 24.024859 16.001953 17.945312 L 32 12.324219 z M 32 20.412109 C 31.486621 20.412109 30.972528 20.544498 30.511719 20.810547 L 23.488281 24.867188 C 22.566662 25.399286 22 26.379164 22 27.443359 L 22 35.554688 C 22 36.618882 22.566662 37.598763 23.488281 38.130859 L 30.511719 42.1875 C 31.433338 42.719597 32.566661 42.719597 33.488281 42.1875 L 40.511719 38.130859 C 41.433339 37.598763 42 36.618882 42 35.554688 L 42 27.443359 C 42 26.379164 41.433339 25.399286 40.511719 24.867188 L 33.488281 20.810547 C 33.027472 20.544498 32.513379 20.412109 32 20.412109 z M 32 22.591797 C 32.137911 22.591797 32.275666 22.626388 32.398438 22.697266 L 39.423828 26.753906 C 39.5466 26.824786 39.645888 26.925488 39.714844 27.044922 L 32 31.5 L 32 40.408203 C 31.862089 40.408203 31.724333 40.371663 31.601562 40.300781 L 24.576172 36.246094 C 24.330629 36.104331 24.177734 35.838215 24.177734 35.554688 L 24.177734 27.443359 C 24.177734 27.301597 24.216204 27.164357 24.285156 27.044922 L 32 31.5 L 32 22.591797 z " /><path
     id="path4353-9"
     style="color:#000000;clip-rule:nonzero;display:inline;overflow:visible;visibility:visible;isolation:auto;mix-blend-mode:normal;color-interpolation:sRGB;color-interpolation-filters:linearRGB;solid-color:#000000;solid-opacity:1;fill:url(#linearGradient4731);fill-opacity:1;fill-rule:nonzero;stroke:none;stroke-width:1;stroke-linecap:butt;stroke-linejoin:miter;stroke-miterlimit:4;stroke-dasharray:none;stroke-dashoffset:0;stroke-opacity:0.5;marker:none;color-rendering:auto;image-rendering:auto;shape-rendering:auto;text-rendering:auto;enable-background:accumulate;font-variation-settings:normal;opacity:0.15;vector-effect:none;-inkscape-stroke:none;stop-color:#000000;stop-opacity:1"
     d="M 32 11.324219 L 16.001953 16.945312 C 16.00554 17.277504 16.003859 17.610863 16.005859 17.943359 L 32 12.324219 L 48.001953 17.947266 C 48.004857 17.61481 48.003216 17.281111 48.007812 16.949219 L 32 11.324219 z M 14.003906 19.941406 C 14.020576 30.235466 14.200472 36.282483 16.128906 40.533203 C 18.270151 45.253058 22.716367 48.41012 32 53.796875 C 41.283633 48.41012 45.729849 45.253058 47.871094 40.533203 C 49.799509 36.282483 49.979421 30.235466 49.996094 19.941406 C 49.96838 29.65436 49.739029 35.415798 47.871094 39.533203 C 45.729849 44.253058 41.283633 47.41012 32 52.796875 C 22.716367 47.41012 18.270151 44.253058 16.128906 39.533203 C 14.260953 35.415798 14.031616 29.65436 14.003906 19.941406 z M 32 21.591797 L 32 22.591797 C 32.137911 22.591797 32.275666 22.626387 32.398438 22.697266 L 38.955078 26.484375 L 39.714844 26.044922 C 39.645888 25.925488 39.5466 25.824786 39.423828 25.753906 L 32.398438 21.697266 C 32.275666 21.626387 32.137911 21.591797 32 21.591797 z M 24.285156 26.044922 C 24.216204 26.164357 24.177734 26.301598 24.177734 26.443359 L 24.177734 27.443359 C 24.177734 27.301598 24.216204 27.164357 24.285156 27.044922 L 32 31.5 L 32 30.5 L 24.285156 26.044922 z M 22 34.554688 L 22 35.554688 C 22 36.61888 22.566663 37.598764 23.488281 38.130859 L 30.511719 42.1875 C 31.433337 42.719596 32.566662 42.719596 33.488281 42.1875 L 40.511719 38.130859 C 41.433338 37.598764 42 36.61888 42 35.554688 L 42 34.554688 C 42 35.61888 41.433338 36.598764 40.511719 37.130859 L 33.488281 41.1875 C 32.566662 41.719596 31.433337 41.719596 30.511719 41.1875 L 23.488281 37.130859 C 22.566663 36.598764 22 35.61888 22 34.554688 z " /></svg>
